<?xml version="1.0" encoding="utf-8"?>
<!-- Generator: Adobe Illustrator 27.5.0, SVG Export Plug-In . SVG Version: 6.00 Build 0)  -->
<svg version="1.1" id="Capa_2" xmlns="http://www.w3.org/2000/svg" xmlns:xlink="http://www.w3.org/1999/xlink" x="0px" y="0px"
	 viewBox="0 0 2279 1975" style="enable-background:new 0 0 2279 1975;" xml:space="preserve">
<path style="fill:#F5B71E;" d="M1988.463,832.008h-79.679c48.895-33.113,60.337-98.356,16.176-142.923
	c-20.926-21.117-49.207-33.384-77.769-41.632c-28.562-8.248-58.071-12.965-86.488-21.701
	c-67.324-20.696-126.294-63.197-193.525-84.194c-15.687-4.899-32.06-8.553-48.455-9.879c-2.776-22.962-14.71-45.095-36.753-61.714
	c-23.738-17.897-53.487-25.981-82.937-30.046c-29.45-4.065-59.33-4.502-88.706-9.07c-69.597-10.825-134.053-44.427-203.601-55.563
	c-33.223-5.319-68.553-5.131-98.98,9.23c-28.705,13.548-51.869,41.801-52.886,74.352c-0.224,7.173,0.619,14.029,2.305,20.593
	c-61.345-28.661-127.388-46.602-193.305-44.202c-1.376,0.05-2.754,0.11-4.132,0.18c-27.624,1.4-55.423,6.858-79.609,20.188
	c-47.103,25.961-65.545,79.704-42.405,124.231c-81.949,12.943-162.788,41.39-224.507,93.802c-1.05,0.892-2.095,1.792-3.134,2.699
	c-20.827,18.203-39.277,39.701-50.016,65.142c-13.403,31.753-10.473,65.161,5.378,90.506H290.2
	c-34.284,0-62.336,28.052-62.336,62.337c0,34.285,28.052,62.337,62.336,62.337h15.187
	c62.577,239.245,225.607,451.415,442.219,571.219c0,41.344,175.287,74.86,391.514,74.86c216.228,0,391.515-33.516,391.515-74.86
	c216.613-119.804,379.643-331.973,442.219-571.219h15.609c34.285,0,62.336-28.052,62.336-62.337
	C2050.799,860.059,2022.749,832.008,1988.463,832.008z"/>
<path style="fill:#680F37;" d="M1908.783,832.009c48.895-33.114,60.339-98.357,16.177-142.924
	c-20.926-21.117-49.207-33.384-77.769-41.632c-28.562-8.247-58.071-12.965-86.488-21.701
	c-67.324-20.696-126.294-63.198-193.525-84.195c-15.687-4.899-32.06-8.553-48.455-9.879c-2.776-22.962-14.71-45.094-36.753-61.713
	c-23.738-17.898-53.487-25.981-82.937-30.046c-29.45-4.065-59.33-4.502-88.706-9.07c-69.597-10.825-134.053-44.427-203.601-55.564
	c-33.223-5.319-68.553-5.131-98.98,9.23c-28.705,13.548-51.869,41.801-52.886,74.352c-0.224,7.174,0.618,14.029,2.305,20.593
	c-61.345-28.661-127.388-46.602-193.305-44.202c-1.376,0.05-2.754,0.11-4.132,0.18c-27.624,1.4-55.423,6.858-79.609,20.188
	c-47.103,25.961-65.545,79.704-42.405,124.231c-81.949,12.943-162.788,41.39-224.507,93.802c-1.05,0.892-2.095,1.792-3.134,2.7
	c-20.827,18.203-39.277,39.7-50.016,65.142c-13.403,31.753-10.473,65.161,5.378,90.507H1908.783z"/>
<path style="fill:#EA5B0C;" d="M1988.463,832.009H290.2c-34.284,0-62.336,28.051-62.336,62.336
	c0,34.285,28.052,62.336,62.336,62.336h1698.263c34.285,0,62.336-28.052,62.336-62.336
	C2050.799,860.06,2022.749,832.009,1988.463,832.009z"/>
<path style="fill:#78113F;" d="M1455.437,536.58c-4.778-7.721-10.855-14.467-17.807-20.252c-11.2-9.319-24.67-16.14-38.628-20.518
	c-28.09-8.811-58.468-8.984-87.642-8.63c-49.445,0.601-99.867,1.167-147.065-13.581c-27.323-8.538-52.796-21.988-78.706-34.159
	c-15.424-7.245-36.203-14.03-53.441-7.825c-21.575,7.767-28.637,33.519-25.27,54.235c1.515,9.323,5.186,17.85,10.169,25.666
	c27.263,16.449,53.123,34.566,77.043,53.373c5.547,4.362,11.423,9.066,17.373,14.078c5.992-2.192,12.044-4.252,18.136-6.218
	c20.261-6.539,41.03-11.8,62.003-16.017c47.306-9.513,95.624-13.572,141.469-13.634c2.174-0.003,4.436,0.01,6.693,0.023
	c14.904,0.084,31.415,0.64,47.872,2.739c5.933,0.757,11.838,1.72,17.663,2.943l-0.085-0.073c2.31,0.484,4.598,1.024,6.873,1.593
	l1.405,0.363c0.636,0.164,1.276,0.322,1.908,0.494c2.272,0.618,4.52,1.282,6.741,1.996l1.012,0.342
	c2.91,0.959,5.782,1.987,8.581,3.129l1.245-1.033c7.373-6.262,15.718-11.433,24.579-15.278
	C1456.88,539.065,1456.193,537.802,1455.437,536.58z"/>
<path style="fill:#78113F;" d="M1091.017,591.19c-43.293-43.667-98.558-73.824-155.895-96.039
	c-55.298-21.425-121.508-44.058-181.592-42.297c-15.284,0.448-30.812,4.031-43.457,12.628
	c-24.279,16.504-30.056,50.024-18.932,76.046c3.569,8.348,8.57,15.928,14.578,22.687c2.453,2.759,5.079,5.376,7.839,7.857
	c13.214-0.673,26.331-1.056,39.229-1.074c2.123-0.003,4.335,0.01,6.536,0.023c20.314,0.111,43.653,1.056,65.692,5.683l-0.085-0.073
	c2.311,0.484,4.599,1.025,6.875,1.594l1.4,0.362c2.921,0.756,5.811,1.577,8.652,2.49l1.012,0.341c2.96,0.976,5.881,2.024,8.726,3.19
	l0.198,0.086c2.451,1.01,4.838,2.115,7.185,3.277l1.084,0.536l0.771,0.38c2.585,1.344,5.081,2.808,7.509,4.36l1.105,0.704
	c2.346,1.547,4.601,3.206,6.772,4.968l1.106,0.911c2.139,1.797,4.186,3.702,6.127,5.73l0.908,0.986
	c1.949,2.11,3.805,4.325,5.521,6.692l0.54,0.791c1.779,2.522,3.45,5.16,4.943,7.984l0.615,1.293
	c25.424,5.375,50.276,12.675,73.613,24.034c25.739,12.528,48.914,29.637,72.712,45.545c14.167,9.47,33.697,19.287,51.67,15.729
	c22.494-4.453,33.328-28.86,33.097-49.846C1126.779,632.187,1108.886,609.214,1091.017,591.19z"/>
<path style="fill:#5A0E30;" d="M988.005,448.062c12.152-38.21,56.45-51.895,92.836-46.813c40.76,5.694,76.59,28.299,112.92,45.996
	c80.258,39.096,174.348-11.872,254.409,27.701c24.724,12.221,44.982,31.724,53.562,56.261c-1.006,0.027-2.015,0.03-3.019,0.077
	c-4.173,0.197-8.329,0.578-12.457,1.16c-6.193,0.874-12.324,2.203-18.357,4.049c-3.504,1.073-6.956,2.372-10.344,3.841
	c-8.861,3.846-17.206,9.017-24.579,15.278l-1.245,1.033c-2.798-1.143-5.671-2.17-8.581-3.129l-1.012-0.342
	c-2.221-0.714-4.469-1.378-6.741-1.996c-0.633-0.172-1.272-0.329-1.908-0.494l-1.405-0.363c-2.275-0.569-4.563-1.109-6.873-1.593
	l0.085,0.073c22.136,18.466,41.061,43.691,46.892,71.097c8.344,39.219-23.383,73.028-57.518,86.612
	c-1.138,0.453-2.291,0.842-3.436,1.265c21.345-5.706,43.216-9.221,65.362-10.83c3.51-3.816,6.869-7.777,9.874-12.055
	c0.897-1.278,1.741-2.598,2.579-3.922c7.678-12.137,12.83-26.122,14.557-40.412c1.198-9.906,0.76-19.949-1.593-29.603
	c-0.47-1.931-1.018-3.846-1.645-5.742c-1.252-3.79-2.821-7.503-4.724-11.101c-0.546-1.032-1.146-2.005-1.73-2.995
	c-1.017-1.724-2.087-3.391-3.217-4.994l-0.535-0.784c-1.717-2.367-3.572-4.582-5.521-6.693l-0.912-0.989
	c-1.455-1.52-2.951-2.994-4.519-4.384c21.854-15.351,52.992-17.18,78.624-9.733c39.522,11.482,71.739,38.993,105.154,61.718
	c73.819,50.204,174.248,13.26,247.804,63.908c32.986,22.713,54.46,59.269,43.522,99.695c-3.886,14.363-11.123,27.786-20.583,39.594
	l-0.06,0.078l0.359-0.302c2.5-1.919,4.882-3.93,7.154-6.018l0.882-0.821c2.246-2.113,4.385-4.301,6.397-6.564l0.668-0.773
	c2.034-2.335,3.961-4.734,5.742-7.207l0.314-0.455c3.666-5.152,6.774-10.579,9.307-16.201l0.29-0.622
	c1.183-2.678,2.215-5.404,3.132-8.16l0.352-1.052c0.862-2.698,1.588-5.428,2.19-8.181l0.256-1.213
	c0.563-2.754,1.002-5.527,1.3-8.316l0.104-1.142c0.267-2.848,0.416-5.708,0.401-8.575l-0.022-0.775
	c-0.084-5.977-0.792-11.97-2.14-17.907l-0.188-0.878c-0.668-2.806-1.506-5.594-2.466-8.363l-0.438-1.268
	c-0.983-2.702-2.118-5.379-3.387-8.029l-0.657-1.344c-1.318-2.639-2.773-5.249-4.383-7.818l-0.779-1.198
	c-1.693-2.615-3.516-5.195-5.522-7.717l-0.651-0.782c-2.146-2.645-4.431-5.244-6.93-7.766l-0.001,0l-0.847-0.77
	c-5.666-5.606-11.821-10.622-18.397-15.055c-2.297-1.549-4.641-3.032-7.027-4.453c-6.362-3.79-13.018-7.14-19.857-10.125
	c-2.564-1.12-5.155-2.188-7.765-3.208c-5.221-2.042-10.521-3.895-15.855-5.591c-2.667-0.848-5.342-1.656-8.02-2.43
	c-7.14-2.062-14.34-3.903-21.568-5.641c-7.227-1.739-14.481-3.374-21.73-5.026c-14.5-3.302-28.981-6.666-43.19-11.033
	c-8.415-2.587-16.7-5.515-24.888-8.699c-8.187-3.184-16.276-6.624-24.299-10.235c-4.012-1.805-8.007-3.654-11.989-5.535
	c-11.949-5.643-23.786-11.576-35.621-17.515c-7.891-3.959-15.78-7.921-23.702-11.8c-7.921-3.879-15.875-7.676-23.892-11.307
	c-16.035-7.26-32.326-13.854-49.134-19.104c-15.687-4.899-32.06-8.553-48.455-9.879l-0.074-0.006
	c-0.099-0.824-0.118-1.654-0.241-2.475l-0.133-0.767c-0.942-5.907-2.502-11.74-4.691-17.426l-0.304-0.823
	c-1.065-2.685-2.296-5.329-3.646-7.936l-0.61-1.181c-1.362-2.536-2.871-5.026-4.509-7.468l-0.838-1.228
	c-1.684-2.426-3.5-4.802-5.465-7.116l-0.935-1.066c-2.052-2.346-4.227-4.638-6.574-6.847l-0.763-0.685
	c-2.503-2.308-5.136-4.553-7.969-6.689c-23.738-17.897-53.487-25.981-82.937-30.046c-7.362-1.016-14.752-1.806-22.153-2.489
	c-11.447-1.058-22.922-1.87-34.374-2.871c-10.763-0.942-21.504-2.05-32.179-3.71c-21.749-3.383-42.996-8.989-64.053-15.441
	c-46.326-14.191-91.734-32.467-139.548-40.123c-4.153-0.665-8.339-1.244-12.544-1.72c-4.205-0.476-8.429-0.849-12.659-1.101
	c-4.23-0.254-8.465-0.386-12.693-0.383c-8.454,0.007-16.876,0.562-25.156,1.8c-4.139,0.619-8.244,1.408-12.299,2.385
	c-2.027,0.488-4.042,1.024-6.044,1.608c-4.002,1.169-7.949,2.534-11.825,4.112c-1.938,0.789-3.859,1.631-5.76,2.529
	c-5.383,2.54-10.57,5.598-15.453,9.103c-6.511,4.674-12.481,10.146-17.65,16.251c-7.755,9.159-13.708,19.745-16.984,31.21
	c-1.092,3.822-1.888,7.741-2.352,11.737c-0.233,1.998-0.383,4.016-0.446,6.05c-0.056,1.793-0.039,3.564,0.033,5.319
	c0.024,0.575,0.085,1.138,0.122,1.71c0.076,1.169,0.153,2.338,0.283,3.491c0.076,0.675,0.187,1.339,0.281,2.009
	c0.146,1.033,0.294,2.067,0.482,3.087c0.13,0.701,0.286,1.392,0.435,2.087c0.208,0.968,0.422,1.936,0.668,2.892
	c9.091,4.248,18.078,8.729,26.947,13.417C982.582,477.531,983.521,462.159,988.005,448.062z"/>
<path style="fill:#660F38;" d="M1130.669,529.533c-10.392-7.062-19.221-16.092-29.858-22.851
	c-8.672-5.511-19.094-10.992-29.699-10.271c-11.158,0.758-20.268,9.603-17.447,21.198c3.196,13.132,18.676,23.859,28.94,31.285
	c14.357,10.39,30.304,18.126,46.992,23.853c20.261-6.539,41.03-11.8,62.003-16.017c-7.627-4.912-18.755-7.352-25.047-9.548
	C1153.911,542.772,1141.76,537.069,1130.669,529.533z"/>
<path style="fill:#490D28;" d="M1113.163,540.462c-4.744-2.071-9.262-4.625-13.317-7.855c-3.801-3.026-6.94-6.766-10.842-9.683
	c-3.182-2.378-7.04-4.796-11.149-4.828c-4.324-0.034-8.095,3.109-7.347,7.661c0.848,5.156,6.502,9.745,10.241,12.908
	c6.11,5.17,13.159,9.016,20.603,11.874c4.629,1.777,9.876,3.758,14.81,4.387c3.232,0.412,7.662,0.106,8.859-3.531
	C1127.19,544.796,1117.308,542.271,1113.163,540.462z"/>
<path style="fill:#660F38;" d="M1432.823,554.917c-4.408-12.777-20.822-22.011-31.734-28.447
	c-17.831-10.517-37.475-17.251-57.7-21.294c-12.576-2.514-26.817-5.278-39.669-4.73c-8.419,0.358-19.583,3.069-21.047,12.861
	c-2.656,17.769,23.639,19.9,34.995,22.706c7.531,1.861,14.91,4.237,22.093,7.108c14.904,0.084,31.415,0.64,47.872,2.739
	c5.933,0.757,11.838,1.72,17.663,2.943l-0.085-0.073c2.31,0.484,4.598,1.024,6.873,1.593l1.405,0.363
	c0.636,0.164,1.276,0.322,1.908,0.494c2.272,0.618,4.52,1.282,6.741,1.996l1.012,0.342c2.91,0.959,5.782,1.987,8.581,3.129
	l1.245-1.033L1432.823,554.917z"/>
<path style="fill:#490D28;" d="M1412.084,550.322l1.405,0.363c0.636,0.164,1.276,0.322,1.908,0.494
	c0.157-0.873,0.157-1.807-0.104-2.801c-1.325-5.054-7.383-9.095-11.402-11.896c-6.567-4.576-13.943-7.748-21.622-9.898
	c-4.774-1.338-10.184-2.82-15.155-2.985c-3.256-0.108-7.64,0.61-8.49,4.343c-1.545,6.773,8.531,8.364,12.827,9.778
	c4.917,1.618,9.653,3.74,13.993,6.577c0.752,0.491,1.469,1.028,2.189,1.562c5.933,0.757,11.838,1.72,17.663,2.943l-0.085-0.073
	C1407.521,549.213,1409.809,549.754,1412.084,550.322z"/>
<path style="fill:#78113F;" d="M1889.145,751.205c-3.62-8.326-8.667-15.875-14.718-22.596c-9.748-10.829-22.1-19.512-35.286-25.847
	c-26.535-12.749-56.574-17.278-85.498-21.112c-49.02-6.498-99.003-13.171-143.597-34.537
	c-25.816-12.369-49.096-29.334-72.992-45.096c-14.225-9.383-33.815-19.078-51.766-15.41c-4.202,0.859-7.99,2.414-11.373,4.511
	c0.584,0.99,1.184,1.964,1.73,2.995c1.902,3.599,3.471,7.311,4.724,11.101c0.626,1.896,1.174,3.811,1.645,5.742
	c2.354,9.653,2.791,19.697,1.593,29.603c-1.727,14.29-6.88,28.276-14.557,40.412c3.748,5.262,7.892,10.255,12.192,14.966
	c8-0.09,16.022,0.049,24.055,0.402c3.485,0.153,6.972,0.345,10.46,0.578c8.443,0.564,16.89,1.354,25.331,2.361
	c12.154,1.451,24.291,3.329,36.37,5.616c56.862,10.767,112.432,30.242,162.378,53.328c19.691,9.101,43.101,20.589,63.089,35.497
	l-0.014-0.032l0.921,0.708c0.817,0.617,1.625,1.241,2.429,1.868c0.616,0.481,1.23,0.964,1.839,1.452
	c0.809,0.649,1.606,1.308,2.399,1.969c0.584,0.487,1.169,0.972,1.744,1.465c0.806,0.691,1.595,1.394,2.383,2.099
	c0.538,0.48,1.081,0.957,1.611,1.444c0.832,0.765,1.64,1.546,2.45,2.327l1.383,1.331c0.988,0.981,1.948,1.981,2.898,2.987
	l0.757,0.786c1.184,1.277,2.334,2.574,3.452,3.892l0.896,1.102c0.795,0.963,1.586,1.927,2.343,2.912
	c0.394,0.512,0.764,1.037,1.147,1.556c0.632,0.856,1.264,1.712,1.866,2.584c0.399,0.578,0.776,1.167,1.161,1.752
	c0.551,0.836,1.097,1.675,1.618,2.527c0.375,0.613,0.733,1.235,1.093,1.856c0.329,0.569,0.676,1.129,0.992,1.705h24.337
	c2.779-1.368,5.489-2.876,8.052-4.643C1894.859,810.713,1900.429,777.158,1889.145,751.205z"/>
<path style="fill:#660F38;" d="M1568.747,697.644c-9.272-8.479-16.715-18.682-26.271-26.897
	c-7.792-6.697-17.32-13.617-27.919-14.424c-11.151-0.85-21.436,6.596-20.307,18.476c0.721,7.59,5.454,14.953,11.047,21.54
	c3.485,0.153,6.972,0.345,10.46,0.578c8.443,0.564,16.89,1.354,25.331,2.361c12.154,1.451,24.291,3.329,36.37,5.616
	C1574.467,702.592,1571.543,700.201,1568.747,697.644z"/>
<path style="fill:#490D28;" d="M1528.46,685.126c-2.808-2.81-6.279-5.756-10.341-6.378c-4.274-0.654-8.457,1.916-8.37,6.529
	c0.078,4.097,3.127,8.26,6.007,11.641c8.443,0.564,16.89,1.354,25.331,2.361c-1.107-0.991-2.264-1.926-3.286-3.013
	C1534.475,692.724,1531.904,688.573,1528.46,685.126z"/>
<path style="fill:#660F38;" d="M1836.81,733.403c-16.138-12.965-34.614-22.448-54.049-29.35c-12.085-4.292-25.782-9.07-38.58-10.372
	c-8.383-0.853-19.821,0.228-22.674,9.71c-5.177,17.204,20.54,23.085,31.376,27.491c12.403,5.042,24.251,11.352,34.948,19.437
	c10.023,7.576,18.386,17.04,28.668,24.326c8.383,5.941,18.516,11.94,29.144,11.755c11.182-0.195,20.727-8.569,18.493-20.292
	C1861.605,752.831,1846.686,741.338,1836.81,733.403z"/>
<path style="fill:#490D28;" d="M1838.147,743.714c-5.842-5.471-12.687-9.667-19.978-12.897c-4.534-2.009-9.674-4.251-14.57-5.128
	c-3.207-0.575-7.648-0.492-9.026,3.079c-2.5,6.481,7.243,9.502,11.292,11.517c4.635,2.307,9.017,5.086,12.905,8.516
	c3.643,3.214,6.59,7.108,10.34,10.218c3.058,2.535,6.789,5.145,10.891,5.384c4.317,0.252,8.242-2.697,7.724-7.281
	C1847.139,751.93,1841.723,747.063,1838.147,743.714z"/>
<path style="fill:#5A0E30;" d="M1181.228,757.4c40.987-8.806,83.649-9.979,126.22-5.566c1.41-1.425,2.865-2.825,4.374-4.195
	c17.335-15.735,38.517-26.531,60.739-34.186c-32.078,7.707-66.083,6.849-98.778,8.952
	C1239.317,724.623,1209.726,739.591,1181.228,757.4z"/>
<path style="fill:#78113F;" d="M1050.591,766.67c0.76,0.675,1.511,1.356,2.258,2.042c0.583,0.535,1.163,1.071,1.737,1.613
	c0.747,0.704,1.48,1.417,2.212,2.132c0.548,0.536,1.098,1.07,1.637,1.612c0.746,0.75,1.474,1.511,2.201,2.273
	c0.502,0.525,1.009,1.047,1.5,1.578c0.761,0.822,1.5,1.657,2.238,2.492c0.43,0.487,0.871,0.967,1.293,1.458l0.714,0.85
	c1.68-0.295,3.352-0.616,5.012-0.976c28.77-6.24,55.256-21.119,80.434-35.861c42.672-24.985,86.212-50.423,134.525-60.957
	c27.969-6.099,56.761-7.012,85.299-9.254c16.988-1.334,38.403-5.718,50.314-19.639c14.906-17.423,8.303-43.298-4.871-59.634
	c-16.688-20.693-44.962-27.655-70.153-30.746c-61.032-7.487-123.103,3.049-181.883,21.104c-10.796,3.316-21.932,6.847-33.201,10.65
	c5.383,5.29,10.575,10.835,15.403,16.607l-0.006-0.034l0.725,0.893c0.656,0.794,1.303,1.593,1.944,2.395
	c0.487,0.608,0.971,1.218,1.449,1.831c0.636,0.818,1.258,1.642,1.877,2.468c0.456,0.608,0.912,1.216,1.358,1.828
	c0.624,0.858,1.228,1.724,1.832,2.59c0.414,0.595,0.834,1.186,1.238,1.786c0.631,0.935,1.236,1.879,1.841,2.824
	c0.346,0.54,0.703,1.075,1.04,1.617c0.747,1.203,1.461,2.416,2.163,3.635l0.518,0.877c0.857,1.517,1.677,3.045,2.459,4.586
	l0.635,1.316c0.545,1.108,1.085,2.218,1.588,3.337c0.266,0.591,0.505,1.189,0.758,1.782c0.419,0.981,0.836,1.963,1.221,2.953
	c0.252,0.647,0.48,1.301,0.716,1.952c0.345,0.946,0.684,1.893,0.996,2.847c0.224,0.685,0.428,1.375,0.635,2.064
	c0.28,0.933,0.55,1.868,0.798,2.808c0.187,0.708,0.359,1.419,0.526,2.131c0.22,0.936,0.424,1.876,0.611,2.819
	c0.142,0.718,0.276,1.438,0.398,2.161c0.161,0.954,0.3,1.912,0.425,2.873c0.094,0.72,0.188,1.439,0.261,2.164
	c0.1,0.984,0.168,1.974,0.229,2.965c0.044,0.707,0.095,1.414,0.118,2.125c0.034,1.037,0.025,2.081,0.015,3.126
	c-0.006,0.676,0.003,1.348-0.022,2.027c-0.043,1.153-0.141,2.314-0.241,3.476c-0.05,0.578-0.073,1.15-0.137,1.729
	c-0.191,1.74-0.438,3.488-0.76,5.246l-0.002,0.015c-0.885,4.824-2.303,9.451-4.091,13.905c-1.18,2.94-2.49,5.819-4.019,8.579
	c-0.961,1.735-1.988,3.433-3.076,5.092c-2.175,3.318-4.595,6.48-7.224,9.47c-5.258,5.981-11.353,11.276-18.003,15.762
	c-8.314,5.608-17.496,9.954-26.999,12.799c-6.044,1.809-12.183,3.1-18.382,3.936c-15.977,2.155-32.342,1.266-48.464-1.541
	c1.875,1.533,3.713,3.101,5.525,4.692l-0.011-0.033L1050.591,766.67z"/>
<path style="fill:#660F38;" d="M1247.984,622.095c13.168-2.421,26.55-3.475,39.917-2.414c12.525,0.995,24.666,4.474,37.252,5.086
	c10.263,0.498,22.032,0.105,30.891-5.768c9.322-6.18,12.863-18.373,4.674-27.054c-9.274-9.831-28.034-11.495-40.628-12.87
	c-20.578-2.249-41.254-0.304-61.351,4.332c-12.496,2.883-26.613,6.223-38.103,12.01c-7.525,3.791-16.586,10.854-13.891,20.382
	C1211.636,633.087,1236.479,624.21,1247.984,622.095z"/>
<path style="fill:#490D28;" d="M1297.707,601.522c5.147-0.548,10.337-0.563,15.459,0.238c4.8,0.75,9.378,2.447,14.213,3.051
	c3.942,0.492,8.491,0.685,12.078-1.319c3.775-2.11,5.497-6.707,2.594-10.293c-3.287-4.062-10.472-5.252-15.286-6.151
	c-7.868-1.469-15.896-1.325-23.779-0.125c-4.902,0.745-10.442,1.62-15.041,3.515c-3.012,1.241-6.712,3.699-5.952,7.451
	C1283.372,604.696,1293.21,602.001,1297.707,601.522z"/>
<path style="fill:#5A0E30;" d="M1092.674,762.768c6.198-0.835,12.338-2.126,18.382-3.936c9.503-2.845,18.685-7.19,26.999-12.799
	c6.651-4.486,12.745-9.781,18.003-15.762c2.629-2.99,5.048-6.152,7.224-9.47c1.088-1.659,2.115-3.357,3.076-5.092
	c1.528-2.76,2.839-5.639,4.019-8.579c1.787-4.454,3.206-9.081,4.091-13.905l0.002-0.015c0.322-1.758,0.57-3.506,0.76-5.246
	c0.063-0.579,0.087-1.152,0.137-1.729c0.099-1.162,0.197-2.323,0.241-3.476c0.025-0.679,0.016-1.352,0.022-2.027
	c0.01-1.045,0.019-2.089-0.015-3.126c-0.023-0.711-0.074-1.418-0.118-2.125c-0.061-0.991-0.129-1.981-0.229-2.965
	c-0.073-0.725-0.167-1.444-0.261-2.164c-0.125-0.961-0.264-1.919-0.425-2.873c-0.122-0.722-0.256-1.443-0.398-2.161
	c-0.187-0.943-0.391-1.883-0.611-2.819c-0.168-0.712-0.34-1.423-0.526-2.131c-0.248-0.94-0.518-1.875-0.798-2.808
	c-0.207-0.689-0.411-1.378-0.635-2.064c-0.312-0.953-0.651-1.901-0.996-2.847c-0.236-0.651-0.465-1.304-0.716-1.952
	c-0.385-0.99-0.802-1.972-1.221-2.953c-0.253-0.594-0.492-1.191-0.758-1.782c-0.503-1.119-1.043-2.229-1.588-3.337l-0.635-1.316
	c-0.782-1.541-1.602-3.069-2.459-4.586l-0.518-0.877c-0.703-1.219-1.417-2.432-2.163-3.635c-0.337-0.543-0.694-1.078-1.04-1.617
	c-0.606-0.944-1.211-1.889-1.841-2.824c-0.404-0.599-0.825-1.191-1.238-1.786c-0.604-0.867-1.208-1.732-1.832-2.59
	c-0.446-0.612-0.902-1.22-1.358-1.828c-0.619-0.826-1.241-1.651-1.877-2.468c-0.478-0.614-0.962-1.223-1.449-1.831
	c-0.641-0.803-1.288-1.602-1.944-2.395l-0.725-0.893l0.006,0.034c5.967,28.224,5.22,59.786-7.181,84.939
	c-17.729,35.964-63.577,42.87-98.793,32.403c-39.45-11.725-71.497-39.434-104.771-62.365c-10.427-7.185-21.413-12.575-32.776-16.758
	c-0.673-9.978-3.164-19.792-7.76-28.926l-0.615-1.293c-1.493-2.824-3.164-5.462-4.943-7.984l-0.54-0.791
	c-1.716-2.367-3.572-4.582-5.521-6.692l-0.908-0.986c-1.94-2.028-3.988-3.932-6.127-5.73l-1.106-0.911
	c-2.171-1.762-4.426-3.421-6.772-4.968l-1.105-0.704c-2.428-1.552-4.924-3.016-7.509-4.36l-0.771-0.38l-1.084-0.536
	c-2.347-1.162-4.734-2.267-7.185-3.277l-0.198-0.086c-2.845-1.166-5.765-2.214-8.726-3.19l-1.012-0.341
	c-2.84-0.913-5.73-1.734-8.652-2.49l-1.4-0.362c-2.276-0.569-4.564-1.11-6.875-1.594l0.085,0.073
	c22.134,18.466,41.061,43.691,46.891,71.097c1.776,8.348,1.647,16.427,0.154,24.143c9.56,3.338,19.032,6.886,28.392,10.641
	c31.224,12.524,61.225,27.191,89.212,42.937c17.078,9.609,37.032,21.393,54.545,35.706
	C1060.332,764.034,1076.697,764.923,1092.674,762.768z"/>
<path style="fill:#5A0E30;" d="M661.077,576.572c-15.288-20.682-22.353-45.997-14.874-72.978
	c3.975-14.339,11.294-27.717,20.826-39.466l0.061-0.078l-0.65,0.513c-0.799,0.61-1.58,1.234-2.356,1.862
	c-0.636,0.513-1.266,1.03-1.886,1.555c-0.759,0.643-1.504,1.296-2.239,1.956c-0.599,0.537-1.188,1.079-1.771,1.628
	c-0.719,0.676-1.429,1.357-2.123,2.049c-0.56,0.557-1.107,1.123-1.651,1.691c-0.678,0.707-1.354,1.417-2.008,2.139
	c-0.52,0.574-1.022,1.16-1.526,1.743c-0.639,0.74-1.281,1.478-1.895,2.233c-0.48,0.589-0.936,1.191-1.4,1.789
	c-0.598,0.769-1.204,1.534-1.775,2.317c-0.436,0.596-0.844,1.207-1.264,1.81c-0.562,0.807-1.137,1.607-1.671,2.427l-0.893,1.443
	c-1.106,1.76-2.147,3.547-3.129,5.36c-0.325,0.6-0.667,1.191-0.978,1.796c-0.42,0.818-0.802,1.65-1.197,2.476
	c-0.334,0.699-0.679,1.393-0.995,2.098c-0.361,0.806-0.689,1.622-1.026,2.435c-0.307,0.741-0.62,1.481-0.906,2.228
	c-0.309,0.804-0.592,1.617-0.877,2.428c-0.271,0.77-0.542,1.54-0.791,2.315c-0.259,0.805-0.499,1.615-0.735,2.425
	c-0.232,0.794-0.456,1.589-0.666,2.388c-0.211,0.808-0.409,1.617-0.598,2.428c-0.188,0.811-0.364,1.623-0.53,2.437
	c-0.165,0.81-0.321,1.621-0.463,2.434c-0.145,0.833-0.272,1.667-0.393,2.502c-0.116,0.801-0.232,1.602-0.325,2.405
	c-0.101,0.864-0.177,1.73-0.252,2.596c-0.068,0.781-0.141,1.561-0.188,2.343c-0.055,0.911-0.077,1.824-0.104,2.737
	c-0.021,0.744-0.055,1.488-0.057,2.232c-0.002,1.002,0.035,2.005,0.068,3.008c0.021,0.659,0.022,1.318,0.058,1.978
	c0.082,1.489,0.209,2.977,0.369,4.465l0.171,1.4c0.167,1.352,0.352,2.703,0.585,4.052c0.108,0.624,0.25,1.246,0.371,1.868
	c0.203,1.037,0.402,2.075,0.644,3.109c0.16,0.686,0.352,1.369,0.529,2.054c0.251,0.967,0.502,1.935,0.788,2.898
	c0.21,0.708,0.447,1.414,0.676,2.12c0.303,0.934,0.611,1.867,0.947,2.796c0.259,0.717,0.54,1.431,0.819,2.145
	c0.357,0.912,0.724,1.82,1.114,2.726c0.307,0.713,0.628,1.424,0.955,2.133c0.417,0.903,0.851,1.802,1.301,2.698l0.586,1.133
	C645.523,578.625,653.3,577.526,661.077,576.572z"/>
<path style="fill:#660F38;" d="M978.363,574.245c11.839,6.252,23.001,13.708,32.84,22.818c9.22,8.536,16.599,18.785,26.105,27.058
	c7.751,6.746,17.236,13.723,27.83,14.596c11.145,0.919,21.476-6.464,20.42-18.351c-1.196-13.462-14.898-26.383-23.935-35.262
	c-14.768-14.507-32.208-25.78-50.86-34.583c-11.598-5.473-24.751-11.591-37.357-14.16c-8.256-1.683-19.745-1.745-23.527,7.405
	C943.014,560.372,968.019,568.783,978.363,574.245z"/>
<path style="fill:#490D28;" d="M1030.146,588.875c4.382,2.757,8.466,5.959,11.993,9.758c3.304,3.56,5.849,7.728,9.272,11.196
	c2.79,2.827,6.243,5.795,10.302,6.442c4.27,0.681,8.468-1.864,8.409-6.477c-0.067-5.225-4.971-10.608-8.196-14.295
	c-5.268-6.025-11.662-10.882-18.595-14.821c-4.311-2.45-9.204-5.193-13.988-6.553c-3.134-0.891-7.561-1.251-9.287,2.166
	C1016.924,582.492,1026.319,586.466,1030.146,588.875z"/>
<path style="fill:#660F38;" d="M831.805,578.224l1.4,0.362c2.921,0.756,5.811,1.577,8.652,2.49l1.012,0.341
	c2.96,0.976,5.881,2.024,8.726,3.19l0.198,0.086c2.451,1.01,4.838,2.115,7.185,3.277c2.266-15.329-21.42-21.025-31.703-25.28
	c-12.372-5.119-24.181-11.501-34.828-19.652c-9.976-7.638-18.28-17.153-28.517-24.503c-8.347-5.993-18.442-12.054-29.071-11.934
	c-11.183,0.126-20.779,8.441-18.618,20.177c2.448,13.292,17.296,24.877,27.123,32.873c5.09,4.141,10.438,7.896,15.958,11.369
	c20.314,0.111,43.653,1.056,65.692,5.683l-0.085-0.073C827.241,577.114,829.53,577.655,831.805,578.224z"/>
<path style="fill:#490D28;" d="M774.352,552.96c-4.62-2.336-8.985-5.142-12.852-8.595c-3.622-3.237-6.546-7.148-10.277-10.281
	c-3.042-2.555-6.757-5.187-10.858-5.452c-4.315-0.279-8.258,2.646-7.768,7.234c0.554,5.196,5.94,10.097,9.494,13.467
	c5.808,5.507,12.628,9.745,19.899,13.02c4.521,2.036,9.647,4.311,14.538,5.218c3.203,0.594,7.645,0.539,9.044-3.024
	C788.112,558.081,778.387,555.001,774.352,552.96z"/>
<path style="fill:#5A0E30;" d="M363.122,800.169c-5.758-13.723-8.29-28.764-8.078-43.895l-0.003-0.091l-0.098,0.459
	c-0.793,3.052-1.439,6.104-1.95,9.15l-0.19,1.18c-0.475,3.05-0.819,6.092-1.016,9.116l-0.052,1.017
	c-0.17,3.093-0.218,6.17-0.103,9.216l0.032,0.552c0.272,6.319,1.153,12.512,2.609,18.505l0.152,0.662
	c0.712,2.841,1.573,5.629,2.542,8.368l0.366,1.04c0.976,2.657,2.08,5.257,3.295,7.798l0.549,1.125
	c1.246,2.515,2.601,4.97,4.078,7.352l0.158,0.284H387.2C377.058,823.957,368.695,813.453,363.122,800.169z"/>
<path style="fill:#78113F;" d="M836.813,624.298c-16.688-20.692-44.962-27.655-70.154-30.745
	c-61.032-7.487-123.103,3.049-181.883,21.103c-56.689,17.413-122.695,40.633-168.788,79.217
	c-11.725,9.815-21.7,22.242-26.308,36.823c-8.847,27.992,7.37,57.891,32.217,71.438c7.972,4.347,16.592,7.203,25.495,8.79
	c14.344,2.557,29.425,1.821,43.721-1.28c14.169-3.073,27.778-8.253,40.956-14.469c-0.678-1.452-1.323-2.914-1.915-4.389
	l-0.314-0.839c-1.019-2.62-1.866-5.279-2.624-7.954c-0.172-0.61-0.316-1.223-0.473-1.836c-0.296-1.141-0.638-2.276-0.884-3.426
	c-0.298-1.39-0.542-2.787-0.771-4.187l-0.135-0.757c-0.437-2.835-0.71-5.686-0.865-8.544l-0.064-1.143
	c-0.116-2.802-0.089-5.609,0.062-8.414l0.075-1.245c0.191-2.812,0.508-5.618,0.964-8.414l0.192-1.083
	c0.286-1.632,0.616-3.259,0.992-4.88c0.284-1.224,0.575-2.447,0.909-3.664l0.189-0.634c1.679-5.944,3.96-11.778,6.833-17.422
	l0.235-0.479c1.399-2.713,2.954-5.371,4.625-7.984l0.543-0.856c1.659-2.537,3.452-5.015,5.364-7.437l0.751-0.94
	c1.941-2.401,4.002-4.74,6.192-7.006l0.311-0.352l-0.048,0.086c3.565-3.663,7.425-7.156,11.633-10.405
	c19.575-15.116,42.987-24.409,67.116-30.224c2.814-0.678,5.632-1.336,8.46-1.922c1.351-0.28,2.704-0.55,4.056-0.811
	c43.089-8.295,87.613-7.69,131.734-0.8c25.144,3.926,50.151,9.904,74.692,17.453C851.509,650.539,845.662,635.271,836.813,624.298z"
	/>
<path style="fill:#660F38;" d="M780.437,619.847c-9.274-9.832-28.034-11.495-40.628-12.871c-20.578-2.249-41.254-0.304-61.351,4.332
	c-12.496,2.883-26.613,6.223-38.103,12.009c-7.525,3.791-16.586,10.854-13.891,20.382c0.894,3.163,2.469,5.434,4.496,7.047
	c2.814-0.678,5.632-1.336,8.46-1.922c1.351-0.28,2.704-0.55,4.056-0.811c43.089-8.295,87.613-7.69,131.734-0.8l0.551-0.313
	C785.084,640.721,788.625,628.527,780.437,619.847z"/>
<path style="fill:#490D28;" d="M746.484,614.948c-7.867-1.469-15.896-1.324-23.779-0.125c-4.902,0.746-10.442,1.62-15.041,3.515
	c-3.012,1.241-6.712,3.699-5.952,7.451c1.379,6.808,11.217,4.113,15.714,3.634c5.148-0.548,10.338-0.563,15.46,0.237
	c4.799,0.75,9.378,2.447,14.213,3.051c3.942,0.493,8.49,0.685,12.078-1.319c3.774-2.109,5.496-6.707,2.594-10.293
	C758.483,617.037,751.299,615.847,746.484,614.948z"/>
<path style="fill:#660F38;" d="M502.387,740.598c-12.563,0.179-24.975-2.152-37.564-1.586c-10.264,0.462-21.945,1.953-30.217,8.628
	c-8.704,7.023-11.091,19.494-2.128,27.372c10.152,8.923,28.985,8.827,41.652,9.021c17.566,0.27,34.913-2.497,51.729-7.302
	c-0.298-1.39-0.542-2.787-0.771-4.187l-0.135-0.757c-0.437-2.835-0.71-5.686-0.865-8.544l-0.064-1.143
	c-0.116-2.802-0.089-5.609,0.062-8.414l0.075-1.245c0.191-2.812,0.508-5.618,0.964-8.414l0.192-1.083
	c0.286-1.632,0.616-3.259,0.992-4.88C518.419,739.534,510.443,740.483,502.387,740.598z"/>
<path style="fill:#490D28;" d="M494.319,759.593c-5.074,1.026-10.24,1.525-15.414,1.206c-4.849-0.299-9.566-1.56-14.436-1.71
	c-3.971-0.122-8.517,0.11-11.902,2.441c-3.561,2.453-4.846,7.191-1.622,10.491c3.653,3.737,10.917,4.251,15.794,4.697
	c7.971,0.728,15.95-0.166,23.687-2.095c4.811-1.201,10.245-2.589,14.647-4.904c2.883-1.517,6.337-4.31,5.23-7.974
	C508.295,755.095,498.752,758.697,494.319,759.593z"/>
<path style="fill:#5A0E30;" d="M1836.209,828.448c-0.521-0.852-1.068-1.691-1.618-2.527c-0.385-0.585-0.762-1.174-1.161-1.752
	c-0.602-0.872-1.234-1.728-1.866-2.584c-0.383-0.518-0.753-1.043-1.147-1.556c-0.757-0.984-1.547-1.949-2.343-2.912l-0.896-1.102
	c-1.117-1.317-2.268-2.615-3.452-3.892l-0.757-0.786c-0.95-1.006-1.909-2.007-2.898-2.987l-1.383-1.331
	c-0.81-0.781-1.619-1.562-2.45-2.327c-0.53-0.487-1.073-0.964-1.611-1.444c-0.788-0.705-1.577-1.408-2.383-2.099
	c-0.575-0.493-1.16-0.978-1.744-1.465c-0.794-0.661-1.591-1.32-2.399-1.969c-0.608-0.488-1.223-0.971-1.839-1.452
	c-0.804-0.628-1.612-1.251-2.429-1.868l-0.921-0.708l0.014,0.032c5.68,12.013,10.049,25.055,12.594,38.289h22.735
	c-0.313-0.571-0.626-1.141-0.953-1.705C1836.942,829.682,1836.584,829.061,1836.209,828.448z"/>
<path style="fill:#78113F;" d="M1742.93,784.52c-52.216-32.473-112.957-49.034-173.877-57.39
	c-58.753-8.059-128.402-14.769-186.451,0.838c-14.766,3.97-29.045,11.047-39.36,22.334c-1.675,1.832-3.135,3.78-4.501,5.773
	c61.312,10.137,121.507,30.774,175.201,55.591c12.429,5.744,26.341,12.44,39.941,20.342h236.326
	C1781.137,811.369,1761.604,796.135,1742.93,784.52z"/>
<path style="fill:#660F38;" d="M1744.364,814.169c-4.276-12.821-20.594-22.224-31.44-28.771
	c-17.722-10.7-37.297-17.636-57.478-21.886c-12.549-2.643-26.761-5.554-39.618-5.139c-8.422,0.272-19.614,2.867-21.178,12.645
	c-2.839,17.74,23.434,20.142,34.76,23.064c12.964,3.345,25.547,8.019,37.226,14.607c10.943,6.173,20.493,14.438,31.654,20.289
	c1.99,1.043,4.076,2.067,6.212,3.031h34.808C1744.262,827.802,1746.758,821.346,1744.364,814.169z"/>
<path style="fill:#490D28;" d="M1715.624,795.439c-6.519-4.644-13.862-7.891-21.519-10.12c-4.76-1.386-10.154-2.924-15.123-3.14
	c-3.255-0.142-7.645,0.531-8.535,4.255c-1.614,6.756,8.445,8.451,12.726,9.909c4.9,1.669,9.615,3.839,13.924,6.72
	c4.039,2.7,7.479,6.166,11.61,8.748c3.369,2.106,7.414,4.195,11.512,3.886c4.311-0.326,7.809-3.772,6.684-8.246
	C1725.629,802.383,1719.613,798.28,1715.624,795.439z"/>
<path style="fill:#78113F;" d="M1343.158,780.575c-58.754-8.058-128.402-14.768-186.452,0.838
	c-14.766,3.97-29.045,11.047-39.36,22.334c-7.413,8.111-11.749,17.942-13.395,28.262h403.101
	C1457.155,803.436,1400.235,788.403,1343.158,780.575z"/>
<path style="fill:#660F38;" d="M1389.933,811.818c-8.422,0.272-19.613,2.867-21.178,12.644c-0.467,2.919-0.086,5.387,0.826,7.546
	h104.817c-14.218-6.92-29.349-11.788-44.847-15.052C1417.003,814.314,1402.791,811.404,1389.933,811.818z"/>
<path style="fill:#5A0E30;" d="M1087.985,827.472c-0.149-1.02-0.298-2.039-0.488-3.046c-0.133-0.707-0.294-1.405-0.447-2.105
	c-0.211-0.964-0.428-1.926-0.676-2.877c-0.185-0.708-0.389-1.409-0.593-2.11c-0.27-0.925-0.551-1.847-0.856-2.76
	c-0.233-0.698-0.476-1.392-0.728-2.083c-0.328-0.902-0.674-1.797-1.034-2.687c-0.275-0.679-0.554-1.356-0.847-2.028
	c-0.388-0.889-0.797-1.769-1.216-2.646c-0.312-0.653-0.621-1.307-0.949-1.953c-0.451-0.887-0.927-1.763-1.408-2.638
	c-0.338-0.615-0.668-1.233-1.02-1.842c-0.532-0.918-1.094-1.823-1.657-2.727c-0.34-0.546-0.666-1.097-1.018-1.638
	c-0.668-1.028-1.37-2.04-2.077-3.05l-0.837-1.216c-1.007-1.399-2.048-2.78-3.124-4.144l-0.729-0.888
	c-0.855-1.063-1.72-2.122-2.614-3.164c-0.422-0.491-0.863-0.971-1.293-1.458c-0.738-0.836-1.476-1.671-2.238-2.492
	c-0.492-0.531-0.999-1.053-1.5-1.578c-0.727-0.762-1.455-1.523-2.201-2.273c-0.539-0.542-1.088-1.076-1.637-1.612
	c-0.731-0.715-1.465-1.428-2.212-2.132c-0.574-0.542-1.154-1.078-1.737-1.613c-0.747-0.685-1.498-1.367-2.258-2.042l-0.867-0.784
	l0.011,0.033c7.887,20.819,12.052,44.196,9.716,66.09h29.039c-0.068-0.831-0.115-1.668-0.211-2.49
	C1088.199,828.831,1088.084,828.154,1087.985,827.472z"/>
<path style="fill:#5A0E30;" d="M537.677,733.567c1.731-14.779,6.915-29.121,14.534-42.191l0.048-0.086l-0.311,0.352
	c-2.191,2.267-4.251,4.606-6.192,7.006l-0.751,0.94c-1.912,2.422-3.705,4.9-5.364,7.437l-0.543,0.856
	c-1.671,2.612-3.226,5.271-4.625,7.984l-0.235,0.479c-2.873,5.644-5.154,11.478-6.833,17.422l-0.189,0.634
	c-0.778,2.826-1.398,5.68-1.901,8.544l-0.192,1.083c-0.456,2.796-0.773,5.602-0.964,8.414l-0.075,1.245
	c-0.151,2.805-0.178,5.612-0.062,8.414l0.064,1.143c0.155,2.858,0.429,5.709,0.865,8.544l0.135,0.757
	c0.417,2.557,1.004,5.091,1.654,7.612c0.158,0.613,0.302,1.226,0.473,1.836c0.758,2.676,1.605,5.334,2.624,7.954l0.314,0.839
	c1.075,2.68,2.315,5.317,3.674,7.917l0.614,1.178c1.371,2.53,2.887,5.011,4.533,7.447l0.849,1.234
	c1.692,2.417,3.514,4.785,5.486,7.089l0.944,1.068c2.058,2.336,4.24,4.618,6.593,6.817c-1.509-1.409-2.962-2.845-4.349-4.311
	c-7.393,4.543-14.876,8.848-22.5,12.785h84.291c-5.013-1.768-9.982-3.827-14.898-6.234
	C559.422,808.161,532.805,775.162,537.677,733.567z"/>
<path style="fill:#78113F;" d="M1036.642,813.239c-4.362-26.223-25.563-46.184-45.982-61.257
	c-49.471-36.519-108.705-57.853-168.768-71.022c-57.928-12.701-126.823-24.923-185.928-13.977
	c-15.035,2.785-29.83,8.704-41.01,19.136c-21.464,20.029-22.037,54.038-7.057,78.049c4.806,7.704,10.908,14.427,17.882,20.186
	c11.235,9.277,24.73,16.049,38.704,20.375c28.122,8.707,58.5,8.768,87.673,8.305c49.443-0.784,99.863-1.536,147.115,13.038
	c5.736,1.769,11.376,3.792,16.972,5.937h140.63C1037.734,825.698,1037.643,819.256,1036.642,813.239z"/>
<path style="fill:#660F38;" d="M960.68,750.474c-16.816-12.073-35.777-20.542-55.558-26.383c-12.3-3.632-26.235-7.661-39.085-8.27
	c-8.417-0.398-19.779,1.3-22.115,10.922c-4.239,17.459,21.759,21.94,32.817,25.753c12.658,4.364,24.83,10.023,35.948,17.518
	c10.419,7.023,19.281,16.021,29.942,22.74c8.692,5.478,19.134,10.92,29.737,10.161c11.155-0.8,20.233-9.679,17.368-21.263
	C986.49,768.532,970.971,757.862,960.68,750.474z"/>
<path style="fill:#490D28;" d="M962.574,760.697c-6.13-5.147-13.192-8.967-20.647-11.797c-4.635-1.76-9.89-3.721-14.826-4.332
	c-3.233-0.4-7.664-0.078-8.846,3.563c-2.145,6.607,7.746,9.095,11.898,10.889c4.752,2.054,9.279,4.591,13.346,7.806
	c3.811,3.012,6.964,6.741,10.878,9.643c3.191,2.366,7.057,4.77,11.167,4.787c4.324,0.019,8.084-3.139,7.318-7.689
	C971.996,768.414,966.325,763.847,962.574,760.697z"/>
<path style="fill:#660F38;" d="M725.666,764.226c-13.01-3.164-25.657-7.661-37.427-14.085c-11.028-6.019-20.693-14.15-31.934-19.844
	c-9.166-4.643-20.071-9.086-30.556-7.34c-11.031,1.838-19.24,11.525-15.307,22.791c4.455,12.76,20.903,21.934,31.839,28.329
	c17.869,10.45,37.539,17.112,57.778,21.08c12.585,2.467,26.836,5.178,39.687,4.584c8.417-0.39,19.571-3.141,20.999-12.939
	C763.335,769.024,737.032,766.989,725.666,764.226z"/>
<path style="fill:#490D28;" d="M671.876,762.718c-4.923-1.601-9.667-3.704-14.017-6.525c-4.076-2.644-7.563-6.061-11.731-8.585
	c-3.398-2.058-7.472-4.091-11.565-3.724c-4.306,0.385-7.755,3.88-6.568,8.339c1.344,5.049,7.417,9.068,11.445,11.853
	c6.584,4.552,13.972,7.696,21.658,9.818c4.779,1.32,10.195,2.782,15.166,2.929c3.256,0.096,7.637-0.638,8.474-4.374
	C686.258,765.67,676.177,764.116,671.876,762.718z"/>
<path style="fill:#EAA801;" d="M1834.978,1176.844c-7.213,7.274-14.664,14.288-22.33,21.051
	c-19.164,16.905-39.668,32.236-61.145,46.122c-38.657,24.995-80.462,45.31-123.261,61.703
	c-16.766,6.422-33.135,11.629-49.551,15.102c-8.208,1.737-16.428,3.041-24.717,3.847c-5.526,0.537-11.081,0.853-16.684,0.928
	c-2.801,0.038-5.615,0.015-8.441-0.07c-5.654-0.17-11.363-0.59-17.144-1.279c-5.781-0.689-11.633-1.648-17.574-2.896
	c-5.526-1.16-11.006-2.482-16.447-3.937c-16.324-4.365-32.303-9.926-48.152-15.893c-21.133-7.957-42.037-16.638-63.224-24.174
	c-9.628-3.425-19.3-6.435-29.002-9.008c-9.701-2.573-19.431-4.707-29.171-6.378c-14.609-2.507-29.242-3.973-43.838-4.315
	c-9.73-0.228-19.444,0.043-29.123,0.838c-4.839,0.398-9.67,0.926-14.49,1.589c-28.919,3.975-57.445,12.775-85.095,27.059
	c-37.397,19.319-66.306,47.708-98.593,74.012c-23.612,19.236-48.608,35.935-78.794,36.584c-4.312,0.093-8.73-0.142-13.265-0.744
	c-11.141-1.479-22.274-4.357-33.279-8.229c-16.508-5.808-32.726-13.852-48.248-22.758c-5.174-2.969-10.271-6.034-15.275-9.144
	c-5.004-3.11-9.916-6.264-14.72-9.413c-4.804-3.149-9.501-6.293-14.075-9.38c-38.253-25.817-73.835-55.469-107.513-86.969
	c-6.076-5.683-12.1-11.414-18.07-17.197c-11.94-11.565-23.659-23.336-35.122-35.34c-11.464-12.004-22.673-24.24-33.593-36.735
	c-10.92-12.495-21.552-25.25-31.86-38.29c-5.154-6.52-10.228-13.112-15.217-19.778c-7.192-9.611-14.579-19.789-21.979-30.443
	c-7.399-10.654-14.812-21.784-22.055-33.299c-16.445-26.145-31.989-54.283-44.56-83.33H370.935
	c30.848,118.46,94.657,231.761,161.712,327.751c89.14,127.601,218.721,229.317,374.545,257.771
	c88.247,16.114,184.118,10.274,271.885-6.338c42.385-8.022,84.902-16.235,126.296-28.526c41.674-12.375,77.079-33.59,116.594-50.469
	c42.201-18.026,82.239,7.921,125.277,6.346c40.388-1.478,79.853-20.8,112.926-42.701c68.36-45.269,125.025-112.043,177.467-174.293
	c2.963-3.517,5.913-7.062,8.857-10.616c57.157-85.228,100.415-179.725,126.361-278.925h-10.522
	C1940.987,1039.5,1892.369,1118.963,1834.978,1176.844z"/>
<path style="fill:#FFD044;" d="M853.322,1231.758c66.789,18.465,127.134-7.614,170.754-58.504
	c40.704-47.489,73.042-99.333,137.058-117.055c62.544-17.315,130.497-1.67,191.792,13.589
	c63.267,15.749,126.297,36.666,191.556,42.443c59.465,5.265,119.6-4.65,174.143-29.071
	c61.864-27.698,114.089-71.603,148.301-126.479H661.058c0.69,50.709,16.975,101.857,40.986,145.387
	C734.42,1160.764,787.366,1213.523,853.322,1231.758z"/>
<path style="fill:#D59404;" d="M1660.17,1420.515c-33.073,21.9-72.537,41.223-112.926,42.701
	c-43.038,1.576-83.076-24.371-125.277-6.346c-39.516,16.879-74.92,38.094-116.594,50.469
	c-41.394,12.291-83.912,20.504-126.296,28.526c-87.767,16.612-183.638,22.452-271.885,6.338
	c-155.824-28.454-285.405-130.169-374.545-257.771c-67.055-95.989-130.864-209.29-161.712-327.751h-65.548
	c17.095,65.36,41.629,128.715,72.77,188.701c30.127,58.032,66.379,112.925,107.887,163.477
	c10.377,12.638,21.083,25.004,32.103,37.081c11.02,12.076,22.356,23.862,33.993,35.339c11.637,11.477,23.575,22.645,35.801,33.485
	c6.113,5.42,12.299,10.758,18.554,16.012c21.894,18.388,44.649,35.743,68.191,51.964c11.772,8.11,23.74,15.938,35.897,23.469
	c12.156,7.531,24.501,14.766,37.024,21.693c0,0.922,0.088,1.841,0.263,2.755c0.523,2.742,1.825,5.446,3.856,8.105
	c0.903,1.182,1.95,2.354,3.137,3.518l0.197,0.212c0.902,0.871,1.886,1.736,2.951,2.595c2.128,1.718,4.573,3.412,7.309,5.082
	c1.368,0.835,2.809,1.664,4.32,2.487c0.507,0.276,0.967,0.556,1.491,0.831c2.335,1.225,4.891,2.429,7.546,3.623
	c6.954,3.128,14.93,6.153,23.953,9.046c0.598,0.191,1.242,0.378,1.849,0.569c0.836,0.263,1.695,0.523,2.548,0.784
	c22.628,6.05,45.53,11.054,68.49,15.154c63.906,11.415,128.561,15.376,193.344,17.503c67.352,2.213,134.865,3.246,201.904-4.884
	c34.778-4.218,69.597-10.859,103.096-21.219c29.68-9.178,53.928-25.164,79.685-41.958c18.233-11.889,31.731-18.231,53.922-19.416
	c14.149-0.756,27.369-2.108,41.06-5.954c21.557-6.054,42.079-16.322,61.199-28.418c-6.098,4.28-12.254,8.479-18.454,12.612
	c1.958-1.302,3.94-2.567,5.887-3.884c2.75-1.861,5.473-3.76,8.201-5.651c4.464-3.093,8.912-6.211,13.318-9.386
	c2.649-1.908,5.281-3.839,7.91-5.777c4.48-3.303,8.931-6.643,13.349-10.029c2.448-1.875,4.889-3.756,7.317-5.656
	c4.639-3.631,9.236-7.315,13.803-11.035c2.121-1.728,4.25-3.446,6.355-5.194c5.026-4.169,9.994-8.408,14.929-12.685
	c1.578-1.368,3.174-2.715,4.743-4.093c6.026-5.296,11.984-10.669,17.87-16.121l1.305-1.189c9.897-9.201,19.592-18.621,29.079-28.248
	c9.487-9.628,18.765-19.463,27.827-29.496l0.479-0.539c5.761-6.389,11.432-12.86,17.017-19.405c0.544-0.637,1.079-1.283,1.621-1.922
	c5.215-6.145,10.355-12.355,15.41-18.633c0.651-0.808,1.294-1.619,1.942-2.429c4.975-6.22,9.875-12.501,14.691-18.845
	c0.584-0.768,1.167-1.536,1.748-2.307c4.933-6.54,9.784-13.143,14.546-19.809c0.387-0.542,0.779-1.081,1.166-1.624
	c4.563-6.416,9.023-12.905,13.426-19.432c0.525-0.778,1.078-1.536,1.601-2.317l-0.32,0.384c-2.944,3.554-5.894,7.099-8.857,10.616
	C1785.195,1308.471,1728.53,1375.246,1660.17,1420.515z"/>
<path style="fill:#C37D11;" d="M1591.272,1490.927c6.2-4.133,12.356-8.331,18.454-12.612c-19.12,12.096-39.642,22.364-61.199,28.418
	c-13.691,3.846-26.911,5.199-41.06,5.954c-22.191,1.185-35.689,7.527-53.922,19.416c-25.757,16.794-50.006,32.779-79.685,41.958
	c-33.499,10.36-68.318,17.001-103.096,21.219c-67.039,8.13-134.551,7.096-201.904,4.884c-64.783-2.128-129.437-6.089-193.344-17.503
	c-22.959-4.101-45.861-9.104-68.49-15.154l-0.674-0.173c0.582,0.179,1.236,0.349,1.827,0.527c3.329,1.005,6.735,2,10.303,2.973
	l0.006,0.002c0.968,0.264,1.943,0.526,2.928,0.787l0.004,0.001c4.13,1.095,8.394,2.171,12.819,3.221l0.496,0.12
	c2.063,0.488,4.18,0.966,6.305,1.443c1.206,0.271,2.426,0.539,3.651,0.806c3.502,0.764,7.089,1.513,10.749,2.249l0.021,0.005
	c1.361,0.273,2.705,0.55,4.087,0.819l0.005,0.001c2.16,0.421,4.354,0.835,6.565,1.247l0.005,0.001
	c1.569,0.292,3.16,0.58,4.754,0.866l0.006,0.001c3.352,0.603,6.761,1.195,10.222,1.776c1.964,0.329,3.928,0.659,5.925,0.981
	c2.155,0.347,4.334,0.689,6.528,1.027c2.185,0.338,4.402,0.668,6.626,0.996c3.019,0.446,6.071,0.883,9.159,1.313
	c2.52,0.351,5.054,0.697,7.618,1.036c2.071,0.273,4.152,0.544,6.251,0.81c3.234,0.41,6.504,0.81,9.805,1.202
	c2.303,0.273,4.626,0.54,6.961,0.804c3.052,0.346,6.126,0.685,9.23,1.014c1.912,0.204,3.824,0.406,5.755,0.604
	c4.339,0.443,8.716,0.875,13.151,1.288c1.54,0.143,3.104,0.278,4.655,0.417c3.554,0.319,7.136,0.629,10.748,0.929
	c1.706,0.141,3.406,0.285,5.124,0.422c4.764,0.38,9.571,0.743,14.428,1.087c1.464,0.104,2.943,0.2,4.415,0.301
	c4.077,0.279,8.184,0.544,12.323,0.797c1.426,0.087,2.843,0.178,4.276,0.262c5.146,0.302,10.339,0.584,15.573,0.846
	c1.433,0.072,2.877,0.138,4.317,0.207c4.614,0.22,9.256,0.426,13.933,0.615c1.059,0.043,2.11,0.09,3.172,0.131
	c5.503,0.213,11.054,0.4,16.638,0.568c1.393,0.042,2.793,0.08,4.191,0.12c5.232,0.146,10.491,0.277,15.788,0.384
	c0.599,0.012,1.191,0.028,1.79,0.04c5.793,0.111,11.632,0.192,17.496,0.255c1.392,0.014,2.787,0.027,4.183,0.039
	c5.954,0.051,11.931,0.087,17.952,0.087c13.515,0,26.869-0.131,40.03-0.386c13.162-0.256,26.13-0.636,38.874-1.135
	c12.743-0.498,25.261-1.115,37.521-1.845c159.373-9.478,275.09-37.903,275.09-71.494c1.69-0.935,3.345-1.929,5.028-2.875
	c5.503-3.095,10.99-6.214,16.418-9.431c4.35-2.578,8.65-5.236,12.952-7.891c2.388-1.474,4.793-2.92,7.167-4.416
	c5.646-3.559,11.25-7.184,16.813-10.869C1589.766,1491.919,1590.521,1491.427,1591.272,1490.927z"/>
<path style="fill:#DD4B13;" d="M2050.41,887.571c-0.08-0.733-0.228-1.444-0.334-2.169c-0.216-1.482-0.445-2.959-0.764-4.406
	c-0.184-0.833-0.42-1.643-0.637-2.464c-0.346-1.309-0.709-2.61-1.137-3.884c-0.28-0.833-0.592-1.647-0.906-2.464
	c-0.47-1.224-0.969-2.432-1.513-3.618c-0.365-0.795-0.742-1.578-1.139-2.355c-0.598-1.17-1.237-2.315-1.906-3.441
	c-0.43-0.726-0.856-1.451-1.315-2.158c-0.745-1.148-1.544-2.255-2.361-3.35c-0.464-0.621-0.906-1.255-1.392-1.858
	c-0.969-1.204-2.005-2.35-3.059-3.479l-1.19-1.309c-1.517-1.535-3.102-3.003-4.768-4.377l0,0
	c-6.489,27.476-31.235,48.106-60.62,48.106H269.105c-14.97,0-28.75-5.352-39.526-14.232h0l-0.001,0.008
	c-0.516,2.188-0.915,4.419-1.206,6.682l-0.061,0.396c-0.286,2.344-0.446,4.726-0.446,7.146c0,34.285,28.052,62.336,62.336,62.336
	h1698.263c34.285,0,62.336-28.052,62.336-62.336C2050.799,892.055,2050.654,889.799,2050.41,887.571z"/>
</svg>
